<svg width="160" height="40" viewBox="0 0 160 40" fill="none" xmlns="http://www.w3.org/2000/svg">
<path d="M35.6965 8.50916L22.8076 30.8607C22.6583 31.1195 22.2858 31.1195 22.1365 30.8607L13.5136 15.9079C13.3641 15.6487 13.5506 15.3245 13.8491 15.3245H17.4852C17.6236 15.3245 17.7514 15.3987 17.8207 15.5188L22.2662 23.2243C22.3578 23.383 22.5863 23.383 22.6778 23.2243L31.387 8.12008C31.4563 7.99991 31.5841 7.92578 31.7225 7.92578H35.361C35.6595 7.92578 35.846 8.24993 35.6965 8.50916Z" fill="#FC7044"/>
<path d="M6.95257 12.6373L21.9867 38.7084C22.1853 39.0524 21.9377 39.4832 21.5413 39.4832H18.504C18.1301 39.4832 17.7845 39.2833 17.5972 38.9584L0.148071 8.70054C-0.0504846 8.35628 0.197347 7.92578 0.593732 7.92578H24.8778C25.1622 7.92578 25.3926 8.1569 25.3926 8.44205V11.3463C25.3926 11.6315 25.1622 11.8626 24.8778 11.8626H7.39823C7.00185 11.8626 6.75401 12.2931 6.95257 12.6373Z" fill="#FC7044"/>
<path d="M48.6221 0.527344C49.0185 0.527344 49.2663 0.957847 49.0677 1.30211L29.6378 34.9977C29.4506 35.3226 29.105 35.5225 28.7311 35.5225H25.7221C25.3257 35.5225 25.0781 35.0922 25.2762 34.7479L42.269 5.2314C42.4671 4.88714 42.2195 4.45688 41.8231 4.45688H17.9366C17.6523 4.45688 17.4219 4.22576 17.4219 3.94061V1.04361C17.4219 0.758463 17.6523 0.527344 17.9366 0.527344H48.6221Z" fill="#FC7044"/>
<path fill-rule="evenodd" clip-rule="evenodd" d="M68.4842 9.88477L63.1241 26.2741H59.8484L54.4883 9.88477H58.2104L61.4489 20.4913L64.7245 9.88477H68.4842Z" fill="#19223F"/>
<path d="M76.5852 14.0664V21.0022C76.5852 22.2977 75.5343 23.3517 74.2426 23.3517C72.9509 23.3517 71.9 22.2977 71.9 21.0022V14.0664H68.8203V21.0022C68.8203 24.0008 71.2526 26.4407 74.2426 26.4407C75.0811 26.4407 75.8757 26.2485 76.5852 25.9064V26.6056C76.5852 27.8869 75.5456 28.9297 74.268 28.9297H71.9244V32.0187H74.268C77.2439 32.0187 79.6651 29.5903 79.6651 26.6056V14.0664H76.5852Z" fill="#19223F"/>
<path d="M156.898 14.0664V21.0022C156.898 22.2977 155.847 23.3517 154.555 23.3517C153.263 23.3517 152.212 22.2977 152.212 21.0022V14.0664H149.133V21.0022C149.133 24.0008 151.565 26.4407 154.555 26.4407C155.394 26.4407 156.188 26.2485 156.898 25.9064V26.6056C156.898 27.8869 155.858 28.9297 154.581 28.9297H152.237V32.0187H154.581C157.556 32.0187 159.978 29.5903 159.978 26.6056V14.0664H156.898Z" fill="#19223F"/>
<path fill-rule="evenodd" clip-rule="evenodd" d="M87.5116 23.3906C85.7572 23.3906 84.3299 21.8869 84.3299 20.0385C84.3299 18.1903 85.7572 16.6867 87.5116 16.6867C89.2659 16.6867 90.6932 18.1903 90.6932 20.0385C90.6932 21.8869 89.2659 23.3906 87.5116 23.3906ZM94.225 13.8406H91.1417V14.7955C90.117 14.0426 88.8641 13.5977 87.5116 13.5977C84.0589 13.5977 81.25 16.487 81.25 20.0385C81.25 23.59 84.0589 26.4796 87.5116 26.4796C88.8641 26.4796 90.117 26.0346 91.1417 25.2817V26.2732H94.225V13.8406Z" fill="#19223F"/>
<path fill-rule="evenodd" clip-rule="evenodd" d="M116.648 23.3906C114.894 23.3906 113.467 21.8869 113.467 20.0385C113.467 18.1903 114.894 16.6867 116.648 16.6867C118.403 16.6867 119.83 18.1903 119.83 20.0385C119.83 21.8869 118.403 23.3906 116.648 23.3906ZM123.362 13.8406H120.278V14.7955C119.254 14.0426 118.001 13.5977 116.648 13.5977C113.196 13.5977 110.387 16.487 110.387 20.0385C110.387 23.59 113.196 26.4796 116.648 26.4796C118.001 26.4796 119.254 26.0346 120.278 25.2817V26.2732H123.362V13.8406Z" fill="#19223F"/>
<path fill-rule="evenodd" clip-rule="evenodd" d="M99.9537 20.0385C99.9537 18.1903 101.381 16.6867 103.135 16.6867C104.89 16.6867 106.317 18.1903 106.317 20.0385C106.317 21.8866 104.89 23.3906 103.135 23.3906C101.381 23.3906 99.9537 21.8866 99.9537 20.0385ZM96.4219 32.0219H99.5054V25.2817C100.53 26.0346 101.783 26.4796 103.135 26.4796C106.588 26.4796 109.397 23.59 109.397 20.0385C109.397 16.487 106.588 13.5977 103.135 13.5977C101.783 13.5977 100.53 14.0426 99.5054 14.7955V13.8406H96.4219V32.0219Z" fill="#19223F"/>
<path fill-rule="evenodd" clip-rule="evenodd" d="M131.238 14.0706C130.202 14.0706 129.229 14.3383 128.38 14.8072V13.8418H125.297V26.2744H128.38V19.9917C128.399 18.427 129.673 17.1596 131.238 17.1596H133.523V14.0706H131.238Z" fill="#19223F"/>
<path d="M134.901 14.0664H137.984V26.2746H134.901V14.0664Z" fill="#19223F"/>
<path fill-rule="evenodd" clip-rule="evenodd" d="M146.44 11.0792H148.917V7.99023H146.44C143.494 7.99023 141.097 10.3939 141.097 13.3484V14.0655H139.57V17.1578H141.097V26.2733H144.177V17.1578H147.855V14.0655H144.177V13.3484C144.177 12.0972 145.192 11.0792 146.44 11.0792Z" fill="#19223F"/>
<path fill-rule="evenodd" clip-rule="evenodd" d="M138.57 10.6295C138.57 11.8083 137.618 12.7637 136.442 12.7637C135.267 12.7637 134.315 11.8083 134.315 10.6295C134.315 9.45076 135.267 8.49538 136.442 8.49538C137.618 8.49538 138.57 9.45076 138.57 10.6295Z" fill="#19223F"/>
</svg>
